{"title":"Pitbull ft. John Ryan - Fireball (2014.Pop)","uid":11065498,"size":132044745,"categoryP":"video","categoryS":"music_videos","magnet":"?xt=urn:btih:471fd2611e429729818a78c85a18d37eb59ce6f1&amp;dn=Pitbull+ft.+John+Ryan+-+Fireball+%282014.Pop%29&amp;tr=udp%3A%2F%2Ftracker.openbittorrent.com%3A80&amp;tr=udp%3A%2F%2Fopen.demonii.com%3A1337&amp;tr=udp%3A%2F%2Ftracker.coppersurfer.tk%3A6969&amp;tr=udp%3A%2F%2Fexodus.desync.com%3A6969","seeders":28,"leechers":1,"uploader":"MeRaDil","files":-1,"time":1411222622,"description":"PITBULL ft.JOHN RYAN - FIREBALL\n\n\n\nMPEG4 PROMO MUSIC VID\n\n &lt;a href=&quot;\nhttp://gifyu.com/images/fireball1.jpg&quot; rel=&quot;nofollow&quot; target=&quot;_NEW&quot;&gt;\nhttp://gifyu.com/images/fireball1.jpg&lt;/a&gt;\n &lt;a href=&quot;\nhttp://gifyu.com/images/Pitbull.png&quot; rel=&quot;nofollow&quot; target=&quot;_NEW&quot;&gt;\nhttp://gifyu.com/images/Pitbull.png&lt;/a&gt;\n\n\nGeneral\nFormat                                   : MPEG-4\nFormat profile                           : Base Media\nCodec ID                                 : isom\nFile size                                : 126 MiB\nDuration                                 : 4mn 1s\nOverall bit rate                         : 4 367 Kbps\nMovie name                               : Fireball\nMovie name/More                          : Pitbull &amp; John Ryan\nAlbum                                    : Globalization\nPerformer                                : Pitbull ft. John Ryan\nGenre                                    : HipHop\nContentType                              : Music Video\nRecorded date                            : 2014\nISRC                                     : The Promo Bay\nCopyright                                : Pitbull\nCover                                    : Yes\nMake                                     : MeRaDil\noday                                     : 19-09-2014  USA\nlabl                                     : RCA - Sony Music\nrelease                                  : USA - september 19 - 2014\nPart_ID                                  : Fireball\n\nVideo\nID                                       : 1\nFormat                                   : AVC\nFormat/Info                              : Advanced Video Codec\nFormat profile                           : &lt;a class=&quot;__cf_email__&quot; href=&quot;/cdn-cgi/l/email-protection&quot; data-cfemail=&quot;4c04252b240c0078627c&quot;&gt;[email&amp;#160;protected]&lt;/a&gt;&lt;script data-cfhash='f9e31' type=&quot;text/javascript&quot;&gt;\n/* &lt;![CDATA[ */!function(){try{var t=&quot;currentScript&quot;in document?document.currentScript:function(){for(var t=document.getElementsByTagName(&quot;script&quot;),e=t.length;e--;)if(t[e].getAttribute(&quot;data-cfhash&quot;))return t[e]}();if(t&amp;&amp;t.previousSibling){var e,r,n,i,c=t.previousSibling,a=c.getAttribute(&quot;data-cfemail&quot;);if(a){for(e=&quot;&quot;,r=parseInt(a.substr(0,2),16),n=2;a.length-n;n+=2)i=parseInt(a.substr(n,2),16)^r,e+=String.fromCharCode(i);e=document.createTextNode(e),c.parentNode.replaceChild(e,c)}t.parentNode.removeChild(t);}}catch(u){}}()/* ]]&gt; */&lt;/script&gt;\nFormat settings, CABAC                   : Yes\nFormat settings, ReFrames                : 2 frames\nCodec ID                                 : avc1\nCodec ID/Info                            : Advanced Video Coding\nDuration                                 : 4mn 1s\nBit rate                                 : 4 104 Kbps\nWidth                                    : 1 920 pixels\nHeight                                   : 1 080 pixels\nDisplay aspect ratio                     : 16:9\nFrame rate mode                          : Variable\nFrame rate                               : 23.976 fps\nMinimum frame rate                       : 23.974 fps\nMaximum frame rate                       : 23.981 fps\nColor space                              : YUV\nChroma subsampling                       : 4:2:0\nBit depth                                : 8 bits\nScan type                                : Progressive\nBits/(Pixel*Frame)                       : 0.083\nStream size                              : 118 MiB (94%)\n\nAudio\nID                                       : 2\nFormat                                   : AAC\nFormat/Info                              : Advanced Audio Codec\nFormat profile                           : LC\nCodec ID                                 : 40\nDuration                                 : 4mn 1s\nBit rate mode                            : Constant\nBit rate                                 : 256 Kbps\nChannel(s)                               : 2 channels\nChannel positions                        : Front: L R\nSampling rate                            : 44.1 KHz\nCompression mode                         : Lossy\nStream size                              : 7.38 MiB (6%)\n &lt;a href=&quot;\nhttps://thepiratebay.se/user/MeRaDil&quot; rel=&quot;nofollow&quot; target=&quot;_NEW&quot;&gt;\nhttps://thepiratebay.se/user/MeRaDil&lt;/a&gt;\n\n:)","torrent":{"xt":"urn:btih:471fd2611e429729818a78c85a18d37eb59ce6f1","amp;dn":"Pitbull+ft.+John+Ryan+-+Fireball+%282014.Pop%29","amp;tr":["udp%3A%2F%2Ftracker.openbittorrent.com%3A80","udp%3A%2F%2Fopen.demonii.com%3A1337","udp%3A%2F%2Ftracker.coppersurfer.tk%3A6969","udp%3A%2F%2Fexodus.desync.com%3A6969"],"infoHash":"471fd2611e429729818a78c85a18d37eb59ce6f1","infoHashBuffer":{"type":"Buffer","data":[71,31,210,97,30,66,151,41,129,138,120,200,90,24,211,126,181,156,230,241]},"announce":[],"urlList":[]}}